<svg id="Calque_1" data-name="Calque 1" xmlns="http://www.w3.org/2000/svg" viewBox="0 0 172.93 172.93"><defs><style>.cls-1{fill:#fff;}.cls-2{fill:#1d71b8;}</style></defs><path class="cls-1" d="M76.14,122.25,46.76,55.78,17.38,122.25H7.43l35-78.66h8.75l35,78.66Z"/><path class="cls-1" d="M122,52.2A29.86,29.86,0,1,1,92.14,82.06,29.89,29.89,0,0,1,122,52.2m0-9.42a39.28,39.28,0,1,0,39.27,39.28A39.28,39.28,0,0,0,122,42.78Z"/><path class="cls-2" d="M168.22,120.7a4.68,4.68,0,0,1-1.46-.23L3.25,67a4.71,4.71,0,0,1,2.92-9l163.51,53.45a4.71,4.71,0,0,1-1.46,9.18Z"/></svg>