<?xml version="1.0" standalone="no"?>
<!DOCTYPE svg PUBLIC "-//W3C//DTD SVG 20010904//EN"
 "http://www.w3.org/TR/2001/REC-SVG-20010904/DTD/svg10.dtd">
<svg version="1.0" xmlns="http://www.w3.org/2000/svg"
 width="256.000000pt" height="256.000000pt" viewBox="0 0 256.000000 256.000000"
 preserveAspectRatio="xMidYMid meet">
<metadata>
Created by potrace 1.14, written by Peter Selinger 2001-2017
</metadata>
<g transform="translate(0.000000,256.000000) scale(0.100000,-0.100000)"
fill="#000000" stroke="none">
<path d="M1666 1915 c-230 -58 -411 -265 -432 -495 -3 -36 -7 -70 -9 -77 -6
-19 -225 59 -245 88 -9 13 -43 85 -75 159 -32 74 -73 169 -92 210 -19 41 -39
85 -44 98 -8 21 -14 23 -76 20 l-67 -3 -73 -164 c-39 -90 -74 -166 -77 -168
-2 -3 -89 23 -193 57 -103 34 -201 62 -217 62 -19 1 -35 -7 -47 -23 -46 -60
-21 -81 186 -150 97 -33 182 -59 190 -59 33 0 30 -14 -44 -172 -17 -37 -41
-93 -55 -125 -13 -32 -38 -87 -54 -123 -82 -178 -122 -275 -118 -287 7 -17
107 -17 128 0 8 6 64 122 123 257 157 356 173 390 187 389 33 -1 322 -106 330
-119 12 -22 59 -128 143 -321 100 -229 92 -219 165 -219 32 0 62 4 65 10 3 5
-4 31 -16 57 -12 26 -45 102 -74 168 -29 66 -65 145 -79 175 -42 90 -40 93 65
56 l90 -31 23 -55 c69 -171 220 -300 406 -346 134 -34 303 -6 432 70 l57 34
146 -49 c192 -65 245 -63 245 9 0 41 -20 54 -154 98 -126 42 -136 47 -118 72
30 41 81 162 93 220 16 85 7 220 -22 302 -58 169 -192 303 -361 361 -82 28
-247 35 -332 14z m327 -162 c94 -45 169 -119 215 -213 32 -66 37 -86 40 -166
4 -75 0 -104 -17 -157 -21 -63 -67 -143 -95 -166 -15 -12 -44 -4 -516 153
l-245 81 -3 55 c-8 121 44 247 136 331 100 92 179 121 317 116 88 -2 108 -6
168 -34z m-1265 -89 c12 -28 35 -82 52 -118 18 -37 30 -69 28 -72 -3 -2 -48
10 -102 28 -113 36 -109 26 -50 154 19 42 39 73 43 68 4 -5 17 -32 29 -60z
m1239 -721 c5 -13 -94 -33 -161 -33 -116 1 -224 47 -308 131 -32 32 -58 64
-58 71 0 16 521 -151 527 -169z"/>
</g>
</svg>
