<?xml version="1.0" standalone="no"?>
<!DOCTYPE svg PUBLIC "-//W3C//DTD SVG 20010904//EN"
 "http://www.w3.org/TR/2001/REC-SVG-20010904/DTD/svg10.dtd">
<svg version="1.0" xmlns="http://www.w3.org/2000/svg"
 width="700.000000pt" height="700.000000pt" viewBox="0 0 700.000000 700.000000"
 preserveAspectRatio="xMidYMid meet">
<metadata>
Created by potrace 1.14, written by Peter Selinger 2001-2017
</metadata>
<g transform="translate(0.000000,700.000000) scale(0.100000,-0.100000)"
fill="#000000" stroke="none">
<path d="M4775 5280 c-27 -4 -68 -10 -90 -13 -62 -9 -223 -53 -298 -81 -434
-165 -782 -520 -940 -961 -51 -143 -90 -361 -90 -507 0 -32 -5 -58 -10 -58
-10 0 -233 73 -531 172 l-128 43 -232 521 c-127 286 -242 545 -255 575 -41 95
-75 172 -102 229 l-26 55 -176 1 c-115 0 -178 -4 -181 -10 -95 -224 -408 -912
-415 -914 -8 -3 -649 203 -966 310 -49 17 -108 32 -129 34 -152 15 -257 -160
-176 -292 38 -61 -2 -45 790 -304 173 -56 318 -105 321 -109 4 -3 -40 -109
-97 -236 -123 -275 -135 -302 -169 -380 -15 -33 -37 -82 -50 -110 -12 -27 -48
-108 -80 -180 -32 -71 -66 -148 -76 -170 -113 -249 -359 -811 -359 -820 0 -7
57 -10 187 -9 104 0 193 2 199 2 7 1 67 127 134 280 67 152 134 302 147 332
14 30 58 129 98 220 40 91 82 186 93 210 11 25 88 200 172 390 83 190 155 348
158 351 4 4 79 -17 167 -46 88 -30 293 -97 456 -150 163 -54 301 -100 306
-104 5 -3 62 -127 127 -276 66 -148 129 -292 141 -320 13 -27 100 -225 194
-438 95 -214 179 -403 187 -421 l16 -32 199 0 c109 0 199 2 199 3 0 1 -13 31
-28 65 -24 52 -550 1235 -560 1260 -4 9 15 3 304 -91 189 -62 223 -76 227 -94
17 -72 94 -239 158 -344 76 -124 205 -275 332 -388 22 -20 137 -105 142 -105
2 0 23 -13 47 -29 157 -105 432 -202 646 -228 79 -10 303 -10 382 0 241 30
477 117 686 252 l81 52 114 -37 c63 -20 260 -85 439 -144 179 -58 340 -106
357 -106 62 0 96 14 139 55 l44 42 0 91 0 91 -37 39 c-36 38 -55 45 -396 157
l-358 117 19 22 c55 63 154 242 207 374 203 515 115 1115 -228 1555 -243 312
-612 532 -992 593 -22 3 -51 8 -65 10 -47 8 -325 11 -375 4z m335 -385 c290
-39 551 -179 747 -400 75 -83 120 -150 177 -265 35 -68 76 -170 81 -200 1 -3
9 -41 20 -85 15 -61 19 -118 19 -240 0 -88 -2 -176 -6 -195 -24 -138 -61 -246
-126 -375 -40 -81 -138 -221 -183 -262 l-25 -22 -214 70 c-118 38 -350 114
-515 168 -540 177 -1128 369 -1232 402 -89 29 -102 36 -107 58 -6 34 0 308 8
346 45 206 115 370 223 520 87 121 256 266 407 350 205 112 487 163 726 130z
m-3141 -295 c13 -30 32 -73 41 -95 10 -22 26 -58 36 -80 9 -22 52 -118 95
-215 43 -96 76 -176 74 -178 -5 -5 -538 169 -549 179 -5 4 -2 23 8 42 9 19 16
37 16 40 0 3 20 47 43 98 24 52 70 156 103 231 l59 138 25 -53 c14 -29 36 -77
49 -107z m2211 -1618 c246 -80 1114 -364 1180 -385 59 -19 55 -24 -28 -51
-224 -71 -468 -80 -678 -25 -227 59 -416 170 -580 341 -87 91 -184 226 -146
205 4 -2 117 -41 252 -85z"/>
</g>
</svg>
